<svg xmlns="http://www.w3.org/2000/svg" xmlns:xlink="http://www.w3.org/1999/xlink" width="129.965" height="32.873" viewBox="0 0 129.965 32.873"><defs><linearGradient id="linear-gradient" x1="-0.412" y1="1.924" x2="0.783" y2="-0.487" gradientUnits="objectBoundingBox"><stop offset="0.01" stop-color="#7cc18b"></stop><stop offset="0.19" stop-color="#4fc0df"></stop><stop offset="0.38" stop-color="#3d5ba6"></stop><stop offset="0.58" stop-color="#a7378c"></stop><stop offset="0.78" stop-color="#e61669"></stop><stop offset="0.98" stop-color="#ea504a"></stop></linearGradient><linearGradient id="linear-gradient-2" x1="0.36" y1="1.198" x2="1.557" y2="-1.213" xlink:href="#linear-gradient"></linearGradient><linearGradient id="linear-gradient-3" x1="-0.03" y1="0.958" x2="1.169" y2="-0.078" xlink:href="#linear-gradient"></linearGradient><linearGradient id="linear-gradient-4" x1="-0.368" y1="1.289" x2="1.829" y2="-0.707" xlink:href="#linear-gradient"></linearGradient><linearGradient id="linear-gradient-5" x1="-0.599" y1="1.501" x2="1.663" y2="-0.561" xlink:href="#linear-gradient"></linearGradient></defs><g id="Layer_2" data-name="Layer 2" transform="translate(0 0.01)"><g id="Concept_2" data-name="Concept 2" transform="translate(0 -0.01)"><path id="Path_4697" data-name="Path 4697" d="M0,7.55H2.113v15.4H0Z" transform="translate(0 -4.289)"></path><path id="Path_4698" data-name="Path 4698" d="M34.219,7.55h2.087v15.4H34.172l-8.8-11.925V22.951H23.26V7.55h2.135L34.219,19.5Z" transform="translate(-13.228 -4.289)"></path><path id="Path_4699" data-name="Path 4699" d="M71.93,7.55H81.962V9.465H74.043v5.059h7.1v1.915h-7.1v6.512H71.93Z" transform="translate(-40.907 -4.289)"></path><path id="Path_4700" data-name="Path 4700" d="M109.07,7.55H111.2V21.036h6.737v1.915H109.07Z" transform="translate(-62.029 -4.289)"></path><path id="Path_4701" data-name="Path 4701" d="M146.532,19.993a4.347,4.347,0,0,0,3.248,1.2,4.27,4.27,0,0,0,3.209-1.2,4.573,4.573,0,0,0,1.169-3.334V7.55h2.113v9.109a6.411,6.411,0,0,1-1.725,4.744,6.411,6.411,0,0,1-4.744,1.725,6.509,6.509,0,0,1-4.8-1.725,6.343,6.343,0,0,1-1.725-4.744V7.55h2.109v9.109A4.386,4.386,0,0,0,146.532,19.993Z" transform="translate(-81.485 -4.289)"></path><path id="Path_4702" data-name="Path 4702" d="M191,7.55h10.692V9.469h-8.583v4.744h7.681v1.915h-7.681v4.908h8.846v1.915H191Z" transform="translate(-108.624 -4.289)"></path><path id="Path_4703" data-name="Path 4703" d="M297.147.945a1.673,1.673,0,0,0-.332-.492,1.674,1.674,0,0,0-.492-.332,1.548,1.548,0,0,0-1.2,0,1.57,1.57,0,0,0-.492.332,1.673,1.673,0,0,0-.332.492,1.475,1.475,0,0,0-.121.6,1.462,1.462,0,0,0,.121.612,1.621,1.621,0,0,0,.332.492,1.57,1.57,0,0,0,.492.332,1.548,1.548,0,0,0,1.2,0,1.673,1.673,0,0,0,.492-.332,1.621,1.621,0,0,0,.332-.492,1.58,1.58,0,0,0,0-1.212ZM296.759,2a1.294,1.294,0,0,1-.242.371,1.216,1.216,0,0,1-.358.25,1.07,1.07,0,0,1-.431.095,1.052,1.052,0,0,1-.431-.095,1.164,1.164,0,0,1-.358-.25A1.2,1.2,0,0,1,294.7,2a1.247,1.247,0,0,1-.086-.457,1.225,1.225,0,0,1,.086-.453,1.152,1.152,0,0,1,.242-.371A1.177,1.177,0,0,1,295.3.466a1.052,1.052,0,0,1,.431-.091,1.065,1.065,0,0,1,.431.091,1.181,1.181,0,0,1,.6.625,1.225,1.225,0,0,1,.086.453,1.247,1.247,0,0,1-.086.457Z" transform="translate(-167.303 0.004)" fill="#3d5ba6"></path><path id="Path_4704" data-name="Path 4704" d="M297.4,2.616a.393.393,0,0,0,.207-.211.579.579,0,0,0,.034-.207.5.5,0,0,0-.082-.3.53.53,0,0,0-.2-.155.72.72,0,0,0-.229-.06h-.755V3.293h.431V2.681h.073l.367.621h.431l-.431-.643a.5.5,0,0,0,.151-.043Zm-.207-.345a.189.189,0,0,1-.065.052l-.078.022H296.8V2h.254a.229.229,0,0,1,.078,0,.189.189,0,0,1,.065.052.168.168,0,0,1,.026.1.168.168,0,0,1-.026.121Z" transform="translate(-168.554 -0.951)" fill="#3d5ba6"></path><g id="nrDxME.tif" transform="translate(102.276)"><path id="Path_4705" data-name="Path 4705" d="M270.606.05c-.341.431-.677.888-1.014,1.337L265.31,7.1a5.292,5.292,0,0,1-1.428,1.294,3.179,3.179,0,0,1-3.731-.2,5.633,5.633,0,0,1-1.018-1.13q-2.588-3.45-5.21-6.927l-.1-.138h.837a.569.569,0,0,1,.561.276c1.113,1.505,2.243,3.019,3.368,4.5.026.035.052.069.091.112l.078-.095q1.725-2.32,3.45-4.649a.272.272,0,0,1,.25-.125h1.018c-1.415,1.9-2.8,3.774-4.2,5.659l1.1,1.484.129-.164L265.8.132a.25.25,0,0,1,.22-.112h1.052L261.13,7.714a2.238,2.238,0,0,0,1.255.263,2.851,2.851,0,0,0,1.6-.819,8.043,8.043,0,0,0,1.057-1.268L269.355.119a.207.207,0,0,1,.19-.095h1.044Z" transform="translate(-246.626 0.01)" fill="url(#linear-gradient)"></path><path id="Path_4706" data-name="Path 4706" d="M246.6,28.632a2.156,2.156,0,0,0-1.975-.056,4.054,4.054,0,0,0-1.428,1.2q-2.42,3.217-4.822,6.443a.216.216,0,0,1-.2.1H237.14a1.249,1.249,0,0,1,.082-.116q2.588-3.481,5.21-6.952a5.3,5.3,0,0,1,1.441-1.315,3.148,3.148,0,0,1,3.614.142,4.114,4.114,0,0,1,.863.888l5.46,7.263a1.243,1.243,0,0,1,.082.116h-1.139c-.035,0-.078-.052-.108-.091l-2.864-3.834-.729-.966-.082.1-3.45,4.654a.276.276,0,0,1-.25.121h-1.014l4.2-5.659L247.349,29.2c-.112.138-.2.259-.3.38l-5.119,6.629a.25.25,0,0,1-.242.116h-1.035Z" transform="translate(-237.14 -15.599)" fill="url(#linear-gradient-2)"></path><path id="Path_4707" data-name="Path 4707" d="M262.45,20.751h-.94a.384.384,0,0,1-.367-.185Q253.483,10.357,245.811.139L245.72.01h1.126c.035,0,.082.052.108.086l4.063,5.4L262.381,20.63Z" transform="translate(-242.02 -0.001)" fill="url(#linear-gradient-3)"></path><path id="Path_4708" data-name="Path 4708" d="M237.47,0h1.1c.043,0,.1.052.129.095q1.415,1.9,2.829,3.813,2.493,3.364,4.986,6.732a1.407,1.407,0,0,1,.082.121h-.927a.393.393,0,0,1-.375-.19L237.535.116Z" transform="translate(-237.328 0.004)" fill="url(#linear-gradient-4)"></path><path id="Path_4709" data-name="Path 4709" d="M272,23.92h1.091a.207.207,0,0,1,.138.091l2.165,2.963,5.382,7.246.086.116H279.8a.224.224,0,0,1-.151-.078l-7.6-10.239A.907.907,0,0,1,272,23.92Z" transform="translate(-256.965 -13.599)" fill="url(#linear-gradient-5)"></path></g><path id="Path_4710" data-name="Path 4710" d="M39.763,68.57h.755l-1.1,3.226h-.75l-.677-2.329L37.309,71.8h-.742L35.48,68.57h.781l.7,2.463.694-2.463h.716l.7,2.463Z" transform="translate(-20.178 -38.992)"></path><path id="Path_4711" data-name="Path 4711" d="M49.47,68.57H50.2v1.346h1.462V68.57h.729V71.8h-.729V70.5H50.2V71.8H49.47Z" transform="translate(-28.134 -38.992)"></path><path id="Path_4712" data-name="Path 4712" d="M59.38,68.57h2.454v.617H60.109v.7h1.553v.6H60.109V71.2h1.777v.6H59.38Z" transform="translate(-33.77 -38.992)"></path><path id="Path_4713" data-name="Path 4713" d="M69.984,71.792l-.509-.923h-.742v.923H68V68.566h1.4a1.471,1.471,0,0,1,.975.293,1.013,1.013,0,0,1,.345.828,1.251,1.251,0,0,1-.134.638.979.979,0,0,1-.431.4l.69,1.065Zm-1.251-1.531h.673a.707.707,0,0,0,.466-.138.522.522,0,0,0,.164-.431.5.5,0,0,0-.164-.4.707.707,0,0,0-.466-.108h-.673Z" transform="translate(-38.672 -38.989)"></path><path id="Path_4714" data-name="Path 4714" d="M77.24,68.57H79.7v.617H77.973v.7h1.553v.6H77.973V71.2H79.75v.6H77.24Z" transform="translate(-43.927 -38.992)"></path><path id="Path_4715" data-name="Path 4715" d="M92.195,68.783a.729.729,0,0,1,.16,1.039.707.707,0,0,1-.405.259.828.828,0,0,1,.492.28.815.815,0,0,1,.181.548.759.759,0,0,1-.328.651,1.475,1.475,0,0,1-.888.242H89.87V68.567h1.484A1.445,1.445,0,0,1,92.195,68.783Zm-.543.988a.315.315,0,0,0,.116-.263.311.311,0,0,0-.116-.259.5.5,0,0,0-.328-.086H90.6v.7h.716A.5.5,0,0,0,91.651,69.771Zm.078,1.324a.332.332,0,0,0,.151-.289.319.319,0,0,0-.151-.276.66.66,0,0,0-.405-.095H90.6V71.2h.716a.686.686,0,0,0,.405-.1Z" transform="translate(-51.11 -38.989)"></path><path id="Path_4716" data-name="Path 4716" d="M99,68.57h2.458v.617H99.733v.7h1.553v.6H99.733V71.2h1.777v.6H99Z" transform="translate(-56.302 -38.992)"></path><path id="Path_4717" data-name="Path 4717" d="M109.5,71.8l-.254-.625h-1.492l-.254.625h-.75l1.4-3.226h.75l1.376,3.226Zm-1.51-1.212h1.022l-.509-1.255Z" transform="translate(-60.71 -38.992)"></path><path id="Path_4718" data-name="Path 4718" d="M117.805,71.011a.694.694,0,0,0,.522.2.664.664,0,0,0,.509-.2.759.759,0,0,0,.185-.548V68.57h.729v1.911a1.492,1.492,0,0,1-.173.738,1.156,1.156,0,0,1-.479.461,1.6,1.6,0,0,1-.759.168,1.635,1.635,0,0,1-.763-.168,1.177,1.177,0,0,1-.5-.479,1.492,1.492,0,0,1-.173-.738V68.57h.729v1.911a.75.75,0,0,0,.177.53Z" transform="translate(-66.482 -38.992)"></path><path id="Path_4719" data-name="Path 4719" d="M125.8,68.57h2.7v.617h-.988v2.588h-.725V69.187H125.8Z" transform="translate(-71.544 -38.992)"></path><path id="Path_4720" data-name="Path 4720" d="M136.7,68.57l-1.177,2.182V71.8h-.725V70.774l-1.195-2.2h.733l.824,1.445.807-1.445Z" transform="translate(-75.98 -38.992)"></path><path id="Path_4721" data-name="Path 4721" d="M147.06,68.57h.811l1,1.98,1-1.98h.807V71.8h-.656V69.618l-.919,1.85h-.47l-.919-1.85v2.156h-.656Z" transform="translate(-83.635 -38.992)"></path><path id="Path_4722" data-name="Path 4722" d="M158.6,68.57h2.454v.617h-1.725v.7h1.553v.6h-1.553V71.2h1.777v.6H158.6Z" transform="translate(-90.197 -38.992)"></path><path id="Path_4723" data-name="Path 4723" d="M167.207,68.57h2.454v.617h-1.725v.7h1.553v.6h-1.553V71.2h1.76v.6H167.19Z" transform="translate(-95.083 -38.992)"></path><path id="Path_4724" data-name="Path 4724" d="M175.13,68.57h2.7v.617h-.988v2.588h-.729V69.187h-.979Z" transform="translate(-99.598 -38.992)"></path><path id="Path_4725" data-name="Path 4725" d="M185.052,69.145a1.587,1.587,0,0,0-.474-.091.591.591,0,0,0-.3.069.233.233,0,0,0-.112.2.289.289,0,0,0,.16.263,2.535,2.535,0,0,0,.492.185,4.313,4.313,0,0,1,.548.194.983.983,0,0,1,.367.289.824.824,0,0,1,.151.513.862.862,0,0,1-.164.53,1,1,0,0,1-.431.341,1.725,1.725,0,0,1-.651.112,2.157,2.157,0,0,1-.768-.138,2.036,2.036,0,0,1-.656-.375l.289-.6a1.954,1.954,0,0,0,.565.354,1.483,1.483,0,0,0,.578.134.643.643,0,0,0,.354-.082.263.263,0,0,0,.125-.237.267.267,0,0,0-.082-.207.613.613,0,0,0-.22-.134l-.358-.112a3.9,3.9,0,0,1-.543-.185.979.979,0,0,1-.362-.28.789.789,0,0,1-.151-.5.863.863,0,0,1,.155-.509,1.035,1.035,0,0,1,.431-.336,1.686,1.686,0,0,1,.651-.116,2.419,2.419,0,0,1,1.229.354l-.28.6A2.674,2.674,0,0,0,185.052,69.145Z" transform="translate(-104.193 -38.912)"></path><path id="Path_4726" data-name="Path 4726" d="M198.06,71.792l-.513-.923H196.8v.923h-.725V68.566h1.4a1.475,1.475,0,0,1,.979.293,1.026,1.026,0,0,1,.345.828,1.251,1.251,0,0,1-.155.638.97.97,0,0,1-.431.4l.686,1.065ZM196.8,70.261h.673a.72.72,0,0,0,.47-.138.522.522,0,0,0,.164-.431.5.5,0,0,0-.164-.4.72.72,0,0,0-.47-.138H196.8Z" transform="translate(-111.513 -38.988)"></path><path id="Path_4727" data-name="Path 4727" d="M205.31,69.57l2.454-1v.617h-1.725v.7h1.553v.6h-1.553V71.2h1.777v.6H205.31Z" transform="translate(-116.762 -38.992)"></path><path id="Path_4728" data-name="Path 4728" d="M215.212,69.145a1.587,1.587,0,0,0-.474-.091.591.591,0,0,0-.3.069.233.233,0,0,0-.112.2.289.289,0,0,0,.16.263,2.536,2.536,0,0,0,.492.185,4.314,4.314,0,0,1,.548.194.984.984,0,0,1,.367.289.824.824,0,0,1,.151.513.863.863,0,0,1-.164.53,1,1,0,0,1-.431.341,1.725,1.725,0,0,1-.651.112,2.156,2.156,0,0,1-.768-.138,2.036,2.036,0,0,1-.656-.375l.289-.6a1.953,1.953,0,0,0,.565.354,1.483,1.483,0,0,0,.578.134.643.643,0,0,0,.354-.082.263.263,0,0,0,.125-.237.267.267,0,0,0-.082-.207.613.613,0,0,0-.22-.134l-.358-.112a3.9,3.9,0,0,1-.543-.185.979.979,0,0,1-.362-.28.789.789,0,0,1-.151-.5.863.863,0,0,1,.155-.509,1.035,1.035,0,0,1,.431-.336,1.686,1.686,0,0,1,.651-.116,2.419,2.419,0,0,1,1.229.354l-.28.6a2.674,2.674,0,0,0-.539-.242Z" transform="translate(-121.346 -38.912)"></path><path id="Path_4729" data-name="Path 4729" d="M223.033,71.011a.707.707,0,0,0,.526.2.656.656,0,0,0,.5-.2.763.763,0,0,0,.19-.548V68.57h.729v1.911a1.539,1.539,0,0,1-.173.738,1.182,1.182,0,0,1-.5.479,1.626,1.626,0,0,1-.759.168,1.665,1.665,0,0,1-.768-.168,1.19,1.19,0,0,1-.5-.479,1.492,1.492,0,0,1-.177-.737V68.57h.729v1.911A.75.75,0,0,0,223.033,71.011Z" transform="translate(-126.316 -38.992)"></path><path id="Path_4730" data-name="Path 4730" d="M231.78,68.57h.729v2.588h1.38V71.8H231.78Z" transform="translate(-131.816 -38.992)"></path><path id="Path_4731" data-name="Path 4731" d="M238.44,68.57h2.7v.617h-.988v2.588h-.729V69.187h-.979Z" transform="translate(-135.603 -38.992)"></path><path id="Path_4732" data-name="Path 4732" d="M248.362,69.145a1.587,1.587,0,0,0-.474-.091.6.6,0,0,0-.3.069.229.229,0,0,0-.108.2.285.285,0,0,0,.16.263,2.371,2.371,0,0,0,.487.185,4.075,4.075,0,0,1,.548.194.983.983,0,0,1,.367.289.824.824,0,0,1,.151.513.863.863,0,0,1-.164.53,1,1,0,0,1-.431.341,1.725,1.725,0,0,1-.651.112,2.156,2.156,0,0,1-.768-.138,2.083,2.083,0,0,1-.656-.375l.293-.6a1.876,1.876,0,0,0,.561.354,1.484,1.484,0,0,0,.578.134.63.63,0,0,0,.354-.082.267.267,0,0,0,.129-.237.272.272,0,0,0-.086-.207.634.634,0,0,0-.216-.134l-.362-.112a4.114,4.114,0,0,1-.543-.185.979.979,0,0,1-.362-.28.789.789,0,0,1-.151-.5.863.863,0,0,1,.155-.509,1.091,1.091,0,0,1,.431-.336,1.7,1.7,0,0,1,.656-.116,2.42,2.42,0,0,1,1.225.354l-.28.6a2.674,2.674,0,0,0-.539-.242Z" transform="translate(-140.199 -38.912)"></path></g></g></svg>